<?xml version="1.0" standalone="no"?>
<!DOCTYPE svg PUBLIC "-//W3C//DTD SVG 20010904//EN"
 "http://www.w3.org/TR/2001/REC-SVG-20010904/DTD/svg10.dtd">
<svg version="1.0" xmlns="http://www.w3.org/2000/svg"
 width="1050.000000pt" height="1050.000000pt" viewBox="0 0 1050.000000 1050.000000"
 preserveAspectRatio="xMidYMid meet">
<metadata>
Created by potrace 1.14, written by Peter Selinger 2001-2017
</metadata>
<g transform="translate(0.000000,1050.000000) scale(0.100000,-0.100000)"
fill="#000000" stroke="none">
<path d="M5036 10402 c-2 -1 -54 -4 -117 -7 -63 -3 -141 -8 -174 -11 -33 -3
-81 -7 -107 -8 -27 0 -48 -4 -48 -7 0 -4 -12 -7 -27 -7 -25 0 -53 -3 -140 -17
-13 -2 -28 -7 -34 -11 -8 -5 -9 -3 -4 6 5 9 4 11 -3 6 -7 -4 -20 -9 -29 -11
-10 -1 -58 -11 -108 -20 -49 -10 -100 -19 -112 -21 -41 -7 -67 -13 -113 -24
-25 -7 -52 -13 -60 -15 -38 -8 -117 -28 -130 -33 -19 -6 -30 -10 -55 -16 -11
-2 -58 -17 -105 -31 -47 -15 -89 -28 -95 -29 -5 -2 -17 -6 -25 -9 -8 -3 -44
-15 -80 -27 -36 -11 -74 -25 -85 -30 -39 -18 -150 -61 -166 -65 -9 -2 -25 -8
-35 -14 -19 -10 -86 -40 -184 -82 -30 -12 -57 -25 -60 -28 -3 -4 -52 -29 -110
-58 -116 -58 -222 -115 -230 -123 -3 -3 -16 -11 -30 -18 -14 -6 -54 -30 -89
-52 -34 -22 -67 -40 -72 -40 -4 0 -12 -6 -16 -13 -4 -7 -25 -21 -46 -32 -20
-11 -37 -22 -37 -26 0 -3 -18 -14 -40 -25 -22 -10 -40 -22 -40 -25 0 -4 -22
-21 -49 -38 -27 -17 -58 -39 -70 -49 -12 -9 -31 -25 -44 -34 -12 -10 -58 -46
-102 -81 -74 -58 -91 -72 -148 -120 -78 -66 -199 -179 -302 -282 -108 -109
-152 -156 -250 -266 -65 -72 -226 -279 -304 -389 -45 -63 -84 -119 -89 -125
-18 -25 -82 -125 -82 -129 0 -3 -13 -24 -28 -48 -16 -24 -40 -63 -53 -88 -13
-25 -29 -52 -35 -60 -39 -49 -204 -395 -320 -670 -87 -206 -228 -704 -269
-950 -30 -181 -38 -237 -60 -419 -28 -236 -27 -787 1 -1036 13 -118 35 -292
39 -305 3 -8 7 -33 10 -55 3 -22 8 -51 11 -65 6 -27 7 -33 18 -95 14 -77 68
-291 111 -435 183 -622 479 -1200 879 -1715 39 -49 73 -92 76 -95 3 -3 25 -30
50 -60 59 -71 95 -113 147 -166 23 -24 41 -44 39 -44 -4 0 207 -208 270 -267
64 -59 93 -84 169 -148 33 -27 62 -52 65 -55 3 -3 28 -23 55 -45 28 -22 52
-43 53 -47 2 -5 9 -8 17 -8 7 0 19 -7 26 -16 8 -9 30 -27 50 -39 20 -13 42
-29 50 -37 8 -7 64 -46 124 -86 61 -39 115 -76 121 -81 7 -6 27 -18 45 -28 19
-10 52 -30 74 -44 22 -14 60 -36 85 -50 25 -13 47 -26 50 -29 3 -3 19 -12 35
-20 17 -8 51 -27 77 -42 25 -14 49 -24 52 -21 3 4 6 1 6 -6 0 -7 4 -10 9 -6 5
3 12 1 15 -4 4 -5 25 -18 49 -29 23 -11 86 -40 140 -66 54 -25 104 -46 111
-46 6 0 16 -4 21 -9 6 -4 33 -16 60 -26 28 -10 55 -22 60 -25 6 -4 28 -13 50
-20 22 -7 46 -17 53 -23 6 -5 12 -6 12 -2 0 4 6 3 13 -3 6 -6 17 -11 22 -12 6
-2 15 -4 20 -5 6 -2 19 -5 30 -8 11 -3 44 -14 73 -25 29 -11 54 -20 55 -20 8
0 64 -16 72 -21 6 -3 19 -7 30 -9 36 -6 40 -8 51 -15 6 -3 25 -8 43 -9 17 -1
31 -5 31 -8 0 -7 144 -41 185 -44 11 0 22 -4 25 -8 3 -4 21 -9 40 -12 19 -2
58 -9 85 -15 91 -19 154 -30 205 -36 19 -2 35 -4 35 -5 0 -4 45 -10 92 -12 29
-2 53 -5 53 -8 0 -4 10 -6 23 -6 12 -1 54 -4 92 -8 172 -16 256 -20 500 -20
227 0 346 4 486 19 102 10 166 17 189 20 14 2 45 7 70 10 59 8 93 14 160 25
30 6 69 13 85 15 17 3 37 8 45 11 8 3 31 8 50 10 19 3 44 7 55 11 11 4 27 8
35 9 8 2 34 8 58 13 23 6 59 15 80 20 20 5 46 12 57 14 11 3 34 10 50 17 17 6
30 11 30 10 0 -2 55 13 95 25 3 1 19 5 35 10 17 4 36 13 44 19 8 6 16 10 18 9
1 -2 4 -3 6 -2 1 0 11 2 22 4 10 2 35 10 55 19 19 8 60 23 90 34 30 11 64 24
75 28 11 4 22 8 25 9 14 5 67 27 85 35 11 5 47 21 80 35 140 62 200 90 203 97
2 5 9 8 15 8 7 0 26 7 42 16 17 9 68 36 115 61 47 24 103 55 125 69 22 13 60
36 85 49 52 30 150 90 165 102 6 4 51 35 100 68 49 33 97 65 105 72 8 6 56 42
105 79 79 59 158 122 246 197 136 116 331 306 464 452 44 49 86 94 93 101 6 7
12 15 12 18 0 3 12 19 28 35 43 47 244 308 289 377 7 10 30 44 51 74 37 54
163 259 214 350 87 153 222 437 289 605 122 309 242 725 284 985 3 19 8 42 10
50 2 8 6 35 9 60 3 25 8 54 10 65 3 18 7 45 21 160 24 193 30 301 30 590 0
249 -8 473 -19 530 -2 11 -7 49 -10 85 -4 36 -8 76 -10 90 -2 14 -7 46 -10 71
-8 55 -13 86 -36 209 -7 36 -14 76 -17 90 -26 142 -155 602 -193 685 -5 11
-21 54 -35 95 -14 41 -32 88 -40 105 -7 16 -37 84 -65 150 -60 139 -181 376
-264 520 -75 130 -305 475 -317 475 -5 0 -9 5 -9 11 0 6 -19 34 -42 63 -41 51
-77 95 -115 144 -10 13 -29 36 -43 51 -14 15 -45 52 -70 82 -53 64 -449 459
-460 459 -4 0 -25 17 -47 38 -21 20 -55 49 -75 64 -20 15 -42 34 -50 41 -10
11 -137 108 -220 169 -92 68 -307 208 -319 208 -5 0 -9 5 -9 10 0 6 -4 10 -10
10 -5 0 -38 17 -72 38 -35 21 -70 41 -78 45 -8 4 -35 19 -60 33 -75 43 -238
124 -249 124 -6 0 -11 5 -11 10 0 6 -4 10 -10 10 -5 0 -33 11 -62 24 -104 47
-244 105 -271 111 -15 4 -27 12 -27 18 0 6 -3 8 -6 4 -4 -3 -19 0 -35 9 -16 8
-29 12 -29 9 0 -3 -13 1 -29 10 -17 8 -38 17 -48 18 -10 2 -25 7 -33 10 -21 9
-201 67 -220 72 -8 1 -59 15 -113 30 -53 14 -106 28 -117 31 -11 2 -28 6 -37
8 -74 18 -121 28 -138 31 -11 2 -31 6 -45 9 -44 10 -67 14 -117 22 -26 3 -57
9 -68 11 -11 2 -31 6 -45 8 -14 1 -44 5 -67 9 -100 14 -239 29 -285 30 -21 1
-38 5 -38 9 0 4 -8 3 -19 -2 -10 -6 -21 -7 -25 -4 -4 4 -44 9 -89 10 -124 5
-408 8 -411 5z"/>
</g>
</svg>
